#tb 0: 1/25
#media_type 0: video
#codec_id 0: rawvideo
#dimensions 0: 352x288
#sar 0: 0/1
0,          0,          0,        1,   608256, 0x7f660c7b
0,          1,          1,        1,   608256, 0x79edc3f2
0,          2,          2,        1,   608256, 0xff4a60c3
0,          3,          3,        1,   608256, 0xecd711ff
0,          4,          4,        1,   608256, 0x7b2a78c2
0,          5,          5,        1,   608256, 0x44ed9a70
0,          6,          6,        1,   608256, 0xeb8424b6
0,          7,          7,        1,   608256, 0xd3883ad7
0,          8,          8,        1,   608256, 0x92a7d8c4
0,          9,          9,        1,   608256, 0x974d6593
0,         10,         10,        1,   608256, 0x37270c67
0,         11,         11,        1,   608256, 0x7b2d8bf0
0,         12,         12,        1,   608256, 0xdf76e003
0,         13,         13,        1,   608256, 0x95240a72
0,         14,         14,        1,   608256, 0x530e3c24
0,         15,         15,        1,   608256, 0x0a08fbe2
0,         16,         16,        1,   608256, 0x16ff4e4b
0,         17,         17,        1,   608256, 0x77e79c48
0,         18,         18,        1,   608256, 0x88c9c31b
0,         19,         19,        1,   608256, 0x094cee71
0,         20,         20,        1,   608256, 0x605b7109
0,         21,         21,        1,   608256, 0xadb04e46
0,         22,         22,        1,   608256, 0xbafff373
0,         23,         23,        1,   608256, 0x1d5355b7
0,         24,         24,        1,   608256, 0x2ab1a71a
0,         25,         25,        1,   608256, 0x723b6edc
0,         26,         26,        1,   608256, 0xb086962a
0,         27,         27,        1,   608256, 0x0bcdfeb9
0,         28,         28,        1,   608256, 0x6c5afd34
0,         29,         29,        1,   608256, 0xc9c5351b
0,         30,         30,        1,   608256, 0x3817ef4d
0,         31,         31,        1,   608256, 0x62bd0dae
0,         32,         32,        1,   608256, 0x992bc522
0,         33,         33,        1,   608256, 0xc65a7e16
0,         34,         34,        1,   608256, 0xfe637e30
0,         35,         35,        1,   608256, 0x6a5e4270
0,         36,         36,        1,   608256, 0x2dd321fa
0,         37,         37,        1,   608256, 0xb6cdc6f4
0,         38,         38,        1,   608256, 0xcf75d3a2
0,         39,         39,        1,   608256, 0xb0645a0f
0,         40,         40,        1,   608256, 0x5be8a44d
0,         41,         41,        1,   608256, 0x7716aadb
0,         42,         42,        1,   608256, 0x53b12481
0,         43,         43,        1,   608256, 0xc0d0cce7
0,         44,         44,        1,   608256, 0x105b3a4b
0,         45,         45,        1,   608256, 0xc7991cae
0,         46,         46,        1,   608256, 0xcb95a51a
0,         47,         47,        1,   608256, 0xe46b5e4e
0,         48,         48,        1,   608256, 0xd8020273
0,         49,         49,        1,   608256, 0xe4dbd5ec
